<?xml version="1.0" encoding="UTF-8"?>
<svg viewBox="0 0 282.27234 280.22131" xmlns="http://www.w3.org/2000/svg">
 <g transform="translate(-185.09 -75.182)">
  <path stroke="#fff" stroke-width="6" fill="#fff" d="m327.78 354.96c-16.155-2.0957-42.047-12.389-74.042-29.436-13.103-6.9809-14.771-8.0964-15.002-10.029-0.25579-2.148-0.11913-2.1001 11.198 3.9224 19.925 10.603 38.79 19.62 41.047 19.62 0.81308 0 2.0466 0.48406 2.7411 1.0757 1.5504 1.3207 7.7459 3.7826 10.461 4.1568 1.0998 0.1516 3.9793 0.96194 6.3989 1.8008s6.3789 1.9862 8.7985 2.5498 4.7693 1.3152 5.2215 1.6703 3.5208 0.8902 6.819 1.1891c7.1279 0.64592 13.193-0.43355 21.18-3.7698l5.6251-2.3496-0.58922-6.561c-0.50548-5.6284-0.36706-7.0429 0.97381-9.9517 0.85967-1.8649 1.563-3.8739 1.563-4.4645 0-1.0874 5.7325-5.0447 9.838-6.7913 6.8369-2.9087 26.8-2.7704 40.553 0.28095 12.966 2.8767 25.197 3.0291 33.062 0.41197 2.9279-0.97434 5.6222-2.3053 5.9873-2.9577s1.259-1.2735 1.9864-1.3802c2.0013-0.29373 5.0549-3.4459 9.9816-10.304 4.5419-6.3221 7.2818-8.4884 4.2615-3.3693-3.8469 6.52-10.644 14.799-14.105 17.18-7.1067 4.8895-11.463 5.9649-23.976 5.9183-8.827-0.03289-12.807-0.43013-18.797-1.8761-10.478-2.5295-28.623-3.2052-35.994-1.3404-2.8595 0.72347-6.6389 2.313-8.3986 3.5324-4.1542 2.8786-5.3541 6.1863-4.6974 12.949 1.1793 12.143 1.4911 10.977-3.6248 13.559-8.9043 4.4949-18.353 6.0755-28.472 4.7628zm-85.985-41.869c0-0.19321 1.3743-1.9392 3.054-3.8799 5.1994-6.0074 9.6471-23.156 10.935-42.161 0.70172-10.357 1.773-15.443 3.6854-17.496l1.6115-1.7297-2.562-2.1854c-1.4091-1.202-3.0488-2.4732-3.6438-2.825-0.63241-0.37392-1.0867-2.0354-1.0937-3.9993-0.04016-11.414-8.2512-28.838-19.272-40.897-5.2245-5.7164-15.225-13.547-23.109-18.093-5.2894-3.0506-6.7596-3.5173-12.43-3.9456-7.4605-0.56356-9.9048-1.9218-12.354-6.8654-2.0409-4.1189-2.0424-7.0938-0.00509-9.9549 2.452-3.4436 2.7007-6.3497 0.84945-9.9266-1.2121-2.342-1.4001-3.4062-0.7419-4.1993 1.4021-1.6894 2.284-1.2613 3.5261 1.7115 1.6307 3.9028 1.4579 5.9106-0.919 10.68l-2.078 4.17 1.878 3.7846c2.6929 5.4268 6.0236 7.3834 12.594 7.3984 5.1828 0.01181 10.938 1.4158 11.961 2.9181 0.28502 0.41833 3.3071 2.7197 6.7158 5.1142s7.188 5.0869 8.3986 5.9832c3.3476 2.4784 14.599 13.84 14.599 14.742 0 0.43681 1.2908 2.812 2.8684 5.2783s3.6809 6.2378 4.674 8.3813 2.2559 4.4398 2.8062 5.1029 0.83829 1.6677 0.6399 2.2324-0.07751 1.7941 0.26861 2.732 1.0204 4.5167 1.4983 7.9529c0.86438 6.2147 0.89269 6.2688 5.3612 10.252 6.1721 5.5011 11.478 12.94 11.478 16.091 0 2.2958-1.8836 6.1058-2.5662 5.1907-3.78-5.0675-9.6702-11.997-10.198-11.997-0.38344 0-0.9239 2.7895-1.201 6.1989-0.44969 5.5322-1.4138 14.614-2.3988 22.596-0.70566 5.7186-4.3466 18.278-6.5135 22.467-1.2311 2.3804-2.1778 4.564-2.1036 4.8523s-1.0896 1.4581-2.5862 2.5996c-2.6143 1.994-3.6275 2.4756-3.6275 1.7241zm218.71-19.15c-5.0045-2.3303-12.389-8.7606-13.762-11.983-0.56217-1.3195-1.4462-2.9102-1.9646-3.5347s-1.0339-1.5492-1.1458-2.0547-1.1086-3.9786-2.2152-7.718c-3.12-10.544-2.7054-26.381 0.80602-30.785 1.6509-2.0704 1.929-2.1752 2.4146-0.90972 0.32732 0.85295-0.10844 2.6144-1.0797 4.3644-6.3432 11.429-2.0563 31.739 9.042 42.837 3.5852 3.5852 10.694 7.689 13.319 7.689 1.0056 0 1.4427 0.60581 1.4427 1.9997 0 2.5521-1.534 2.5734-6.8564 0.09498zm-211.45-54.594c-1.9915-2.5318-2.2816-7.4908-0.43819-7.4908 1.3324 0 2.2575 1.9666 3.104 6.5989 0.64959 3.5547-0.31686 3.8781-2.6658 0.89196zm0.70514-3.56c-0.49104-0.91753-1.0949-1.4661-1.3419-1.2191s0.00619 0.99771 0.56267 1.6682c1.438 1.7327 1.8269 1.5085 0.77924-0.4491zm194.93-2.5416c-4.7781-9.7661-13.376-12.19-16.499-4.6506-0.56078 1.3538-1.3601 2.4615-1.7763 2.4615-1.7748 0 2.4273-8.2731 4.6318-9.1191 5.3313-2.0458 13.139 3.1172 15.491 10.244 1.7324 5.2493 0.53726 5.938-1.8472 1.0643zm-22.556-6.7883c0.07184-2.0896 0.33742-4.3393 0.59017-4.9992 0.85575-2.2342 2.584-8.3929 2.6231-9.3475 0.02136-0.52189 0.86653-1.9616 1.8782-3.1994s2.4345-3.2404 3.1619-4.4502 1.605-2.1996 1.95-2.1996c0.97999 0 0.79024 0.48755-1.7464 4.4875-3.2575 5.1365-5.0682 10.994-5.164 16.704-0.08512 5.0728-0.6929 6.8033-2.3894 6.8033-0.71892 0-0.99442-1.1584-0.90363-3.7994zm-176.94 2.0233c-2.171-1.047-2.432-3.823-0.35942-3.823 2.4711 0 5.7457 1.9352 5.7523 3.3994 0.00715 1.6049-2.5301 1.8042-5.3928 0.42354zm189.24-29.219c0.86679-1.2098 2.511-3.0722 3.6538-4.1388s2.0779-2.3726 2.0779-2.9024 1.054-1.3999 2.3421-1.9335 2.5367-1.4771 2.7744-2.0967c0.25997-0.67746 1.5696-1.1266 3.2851-1.1266 2.6049 0 2.7784 0.13899 1.9966 1.5997-0.47087 0.87985-1.5094 1.5997-2.3077 1.5997-1.8444 0-7.1738 3.8456-11.074 7.991-3.4535 3.6703-5.0841 4.2681-2.7479 1.0075zm-228.23-11.409c-2.6268-1.0227-6.1063-5.1777-5.55-6.6274 0.7293-1.9005 3.2508-2.427 5.9344-1.2391 2.0931 0.92649 2.342 1.4148 2.2806 4.4743-0.07769 3.8704-0.396 4.2756-2.665 3.3922zm1.1936-3.7885c-0.00707-1.5858-3.7278-3.6759-4.4535-2.5017-0.44604 0.72171 2.641 3.8208 3.8598 3.8748 0.32995 0.01464 0.59709-0.60328 0.59366-1.3732zm244.76-0.99983c0-1.3198 0.35994-2.3996 0.79987-2.3996s0.79986 1.0798 0.79986 2.3996-0.35994 2.3996-0.79986 2.3996-0.79987-1.0798-0.79987-2.3996zm1.1446-9.7256c0.14889-2.9295 0.49538-5.6898 0.76998-6.1341s1.41-3.9507 2.5232-7.7921 3.0364-9.5916 4.2738-12.778l2.2499-5.7942-4.8809-1.0571c-2.6845-0.58141-5.3575-0.95733-5.94-0.83537s-1.4824-0.12948-1.9997-0.55875-4-1.5526-7.7393-2.4963-10.398-2.8295-14.797-4.1907-8.5385-2.5315-9.1984-2.6007-1.9197-0.50617-2.7995-0.97117c-2.1045-1.1122-7.8513-3.023-8.5397-2.8393-0.29755 0.07938-6.2128-2.7264-13.145-6.235s-13.06-6.3793-13.617-6.3793-1.3006-0.45931-1.6524-1.0207-3.677-3.1709-7.3894-5.799c-12.855-9.1005-27.631-25.241-27.102-29.606 0.23726-1.9616 0.67171-1.6064 5.4149 4.4274 19.532 24.846 49.699 40.634 102.36 53.565 7.2208 1.7733 13.297 3.3922 13.502 3.5976s-0.18028 1.9162-0.857 3.8018c-5.8857 16.4-9.5412 27.449-10.529 31.824l-1.1734 5.1991 0.27073-5.3263zm-213.11-24.748c-3.2994-0.28412-9.4184-0.93821-13.598-1.4535s-9.5784-0.89667-11.998-0.84744-8.1786-0.27923-12.798-0.72994-8.8485-0.83516-9.3984-0.85434-0.99983-0.97477-0.99983-2.1235c0-1.9184 0.21196-2.0508 2.5996-1.6248 1.4298 0.25513 8.7185 0.83199 16.197 1.2819s18.028 1.4118 23.442 2.1376c8.1528 1.0929 10.418 1.1477 13.183 0.31927 3.8423-1.1512 6.7274-3.2241 8.7448-6.283 1.973-2.9916 1.795-4.215-1.177-8.0884-6.1179-7.9733-6.1989-8.1369-6.1989-12.522 0-5.2115 1.6699-6.7259 7.4165-6.7259 6.514 0 11.014 3.4426 10.948 8.3766l-0.03203 2.4216-1.1382-2.0945c-1.9975-3.6757-9.0075-5.8965-13.795-4.3704-2.5474 0.812-2.2447 2.9857 0.97499 7.0026 4.3995 5.4887 5.4337 7.8295 5.3378 12.082-0.09599 4.2605-1.5492 10.607-2.2648 9.8914-0.24535-0.24534-1.5715 0.37097-2.9469 1.3696-4.0009 2.9047-6.117 3.3847-12.499 2.8351zm31.595-15.029c-0.87985-0.37909-1.8216-0.56281-2.0927-0.40827-1.045 0.59556-2.9167-2.6326-3.4094-5.8802-0.6126-4.0377 0.1124-4.2785 2.3155-0.76906 1.1143 1.7751 2.5593 2.8036 4.6771 3.3287 4.2232 1.0473 8.2915-0.521 21.427-8.2603 5.8721-3.4597 13.228-7.7585 16.346-9.5529s6.9672-4.699 8.5534-6.4547c2.9143-3.2258 5.3738-9.556 5.3738-13.831 0-1.2399 0.27695-2.2544 0.61544-2.2544 0.72316 0 0.2374 12.21-0.50914 12.798-0.27924 0.21996-1.3098 2.0442-2.2902 4.0539-1.9276 3.9515-3.9872 5.5069-16.813 12.697-4.0693 2.2812-7.3987 4.4846-7.3987 4.8966s-0.56504 0.74891-1.2556 0.74891-2.7602 1.0314-4.5992 2.292c-8.3241 5.7061-16.806 8.3777-20.941 6.5961zm53.191-49.266c0-1.3816 0.43994-2.0183 1.3998-2.0256 0.76986-0.00589 4.4592-1.0809 8.1986-2.3889s6.8888-2.383 6.9988-2.3889 0.19997 0.86489 0.19997 1.9351c0 1.3182-0.58048 2.1269-1.7997 2.5074-0.98983 0.30891-2.0169 0.89898-2.2824 1.3113s-1.3453 0.85891-2.3996 0.99249-2.9967 0.49019-4.3165 0.79248c-6.0806 1.3928-5.999 1.4028-5.999-0.73531z"/>
 </g>
</svg>
